<?xml version="1.0" encoding="utf-8"?>
<!-- Generator: Adobe Illustrator 16.0.0, SVG Export Plug-In . SVG Version: 6.00 Build 0)  -->
<!DOCTYPE svg PUBLIC "-//W3C//DTD SVG 1.1//EN" "http://www.w3.org/Graphics/SVG/1.1/DTD/svg11.dtd">
<svg version="1.1" id="Layer_1" xmlns="http://www.w3.org/2000/svg" xmlns:xlink="http://www.w3.org/1999/xlink" x="0px" y="0px"
	 width="144.525px" height="100px" viewBox="0 0 144.525 100" enable-background="new 0 0 144.525 100" xml:space="preserve">
<path fill="#FFFFFF" d="M144.525,96.503c0,1.932-1.565,3.497-3.497,3.497H3.497C1.566,100,0,98.435,0,96.503V3.497
	C0,1.566,1.566,0,3.497,0h137.531c1.932,0,3.497,1.566,3.497,3.497V96.503z"/>
<g>
	<path fill="#888888" d="M138.698,45.379c-0.088,0-0.18,0.004-0.276,0.014c-0.762,0.02-1.364,0.441-1.67,1.164
		c-4.142,8.048-7.047,13.13-8.638,15.105c-2.645,3.188-5.315,4.904-7.942,5.102c1.515-1.344,2.875-2.934,4.063-4.744
		c1.736-2.646,2.619-5.39,2.619-8.146c0-2.733-0.908-6.115-2.776-10.34c-0.82-1.728-1.504-3.21-2.104-4.559
		c-0.562-1.266-0.849-2.938-0.849-4.972c0-3.742,1.112-6.083,3.399-7.159c0.351-0.176,0.748-0.259,1.209-0.259
		c0.476,0,1.084,0.167,1.812,0.497c0.463,0.212,0.879,0.316,1.272,0.316c0.789,0,1.429-0.431,1.752-1.182
		c0.234-0.539,0.556-1.922-1.649-2.99c-1.181-0.57-2.407-0.859-3.646-0.859c-4.535,0-8.496,3.536-11.776,10.51
		c-1.069,2.316-2.723,4.773-4.532,7.106c1.157-3.256,1.751-6.323,1.751-9.136c0-5.554-2.219-8.947-6.592-10.084
		c-0.606-0.175-1.291-0.268-2.004-0.268c-2.358,0-4.795,1.196-7.236,3.554c-1.438,1.36-2.848,2.748-4.176,4.115
		c-1.062,1.099-2.606,3.214-4.604,6.305c0.742-3.188,1.117-6.196,1.117-8.998c0-0.879-0.111-1.688-0.334-2.401
		c-0.189-0.601-0.748-1.611-2.369-1.695c-0.056-0.003-0.108-0.004-0.177-0.004c-0.62,0-2.146,0.117-8.219,1.125
		c-0.438,0.073-0.774,0.425-0.828,0.866c-0.053,0.44,0.188,0.864,0.599,1.039c0.241,0.104,1.03,0.703,1.03,4.049
		c0,2.695-0.682,5.692-2.024,8.908c-0.17,0.399-0.329,0.769-0.481,1.125c-0.351,0.429-0.566,0.935-0.685,1.209
		c-2.671,6.098-5.847,11.408-9.438,15.769c-2.164,2.51-4.125,3.844-5.653,3.844c-0.396,0-1.226,0-1.226-2.271
		c0-4.722,4.756-15.568,14.136-32.241c0.135-0.239,0.163-0.524,0.081-0.786c-0.079-0.263-0.267-0.48-0.514-0.601
		c-0.452-0.223-0.99-0.335-1.604-0.335c-2.146,0-5.345,1.188-9.787,3.632c-4.289,2.361-8.064,4.98-11.226,7.785
		c-1.332,1.184-2.7,2.51-4.094,3.972c0.303-0.555,0.622-1.137,0.957-1.747c3.631-6.62,4.098-8.545,4.098-9.483
		c0-1.18-0.484-2.775-2.759-3.765c-0.32-0.29-0.75-0.446-1.232-0.446c-0.287,0-0.591,0.051-0.929,0.156
		c-0.688,0.216-1.024,0.249-1.166,0.249c-0.562,0-1.229,0.263-2.166,0.854c-0.707,0.448-1.256,0.761-1.632,0.932
		c-0.507,0.228-1.15,0.659-2.021,1.355l-0.566,0.455c-0.521,0.417-0.939,0.754-1.26,1.017c-0.43,0.349-1.053,0.896-1.903,1.667
		l-1.872,1.693c-0.271,0.249-0.607,0.553-1.017,0.919l-0.796,0.717c-0.774,0.699-1.963,1.748-3.554,3.149
		c-0.616,0.54-1.372,1.295-2.275,2.273c5.286-9.71,8.135-12.89,9.646-13.723c0.326-0.165,0.551-0.502,0.551-0.892
		c0-0.543-0.431-0.985-0.971-1c-0.012,0-0.021,0-0.031,0c-0.035,0-0.07,0.002-0.106,0.006c-0.052,0.005-0.104,0.015-0.151,0.028
		c-0.167,0.04-0.385,0.06-0.646,0.06c-0.469,0-1.066-0.065-1.778-0.194c-1.789-0.33-2.317-0.372-2.581-0.372
		c-1.898,0-3.436,0.571-4.562,1.696c-2.196,2.112-6.396,9.78-12.823,23.426C7.38,54.902,4.909,60.045,3.509,62.77
		c-0.202,0.396-0.12,0.875,0.199,1.184c0.189,0.184,0.438,0.273,0.689,0.273c0.17,0,0.343-0.043,0.498-0.133
		c0.182-0.104,0.829-0.355,2.938-0.451c1.816-0.08,3.034-0.229,3.717-0.463c0.847-0.277,1.535-0.979,2.043-2.086
		c5.227-10.058,10.578-17.625,15.908-22.493c2.806-2.657,4.886-4.331,6.199-4.987c0.178-0.087,0.322-0.151,0.442-0.196
		c0,0.121-0.004,0.272-0.019,0.458c-0.048,0.628-0.455,2.125-2.125,5.663c-4.394,9.17-6.528,15.275-6.528,18.661
		c0,0.968,0.35,2.048,1.066,3.304c0.8,1.398,2.108,2.141,3.788,2.141c0.469,0,0.875-0.326,0.978-0.785
		c0.672-3.055,2.844-7.223,6.452-12.381c3.636-5.208,7.146-9.402,10.438-12.466c4.271-3.978,5.811-4.407,6.271-4.407
		c0.686,0,0.896,0.137,0.927,0.162c-0.002,0.004,0.003,0.026,0.003,0.064c0,0.432-0.198,1.27-1.141,2.81
		c-3.586,5.746-5.726,9.798-6.528,12.382c-0.806,2.583-1.213,4.829-1.213,6.667c0,1.959,0.416,3.547,1.234,4.724
		c1.75,2.459,3.932,3.702,6.483,3.702c2.421,0,4.618-0.67,6.532-1.989c1.799-1.237,3.312-2.528,4.495-3.835
		c1.162-1.275,2.527-3.225,4.169-5.938c-1.977,4.701-4.732,10.584-8.257,17.613C54.59,87.082,51.457,91.943,50.34,93.01
		c-0.312,0.297-0.396,0.762-0.213,1.15c0.166,0.354,0.521,0.572,0.902,0.572c0.04,0,0.081-0.002,0.122-0.008
		c0.12-0.018,0.254-0.021,0.399-0.021c0.516,0,1.201,0.084,2.037,0.248c1.898,0.367,2.156,0.367,2.295,0.367h1.695
		c1.158,0,2.346-0.463,3.529-1.377c1.158-0.89,2.325-2.615,3.564-5.277c0.01-0.018,0.017-0.033,0.022-0.053L75.403,61.92
		c2.418,1.143,4.695,1.723,6.785,1.723c2.295,0,4.367-0.248,6.164-0.736c4.728-1.469,8.76-4.213,12.021-8.16
		c0.47-0.566,0.921-1.145,1.362-1.723c0.238-0.193,0.448-0.393,0.632-0.576c0.866-0.872,1.86-1.795,3.069-2.907
		c3.481-3.212,7.149-7.026,10.683-13.062c0.086,1.654,0.348,4.157,0.795,7.59c0.537,4.165,0.812,7.463,0.812,9.807
		c0,5.273-1.437,9.193-4.267,11.666c-2.547-1.461-3.787-4.104-3.787-8.044c0-3.858-2.096-4.487-3.392-4.509l-1.936-0.227
		c-0.037-0.006-0.076-0.008-0.115-0.008c-0.022,0-0.047,0.002-0.069,0.004c-1.392,0.098-2.681,0.941-3.836,2.508
		c-1.099,1.494-1.654,3.09-1.654,4.742c0,1.539,0.125,2.82,0.384,3.912c1.299,4.863,5.004,7.314,11.021,7.314
		c1.459,0,3.055-0.363,4.866-1.111c1.215,0.314,2.455,0.475,3.692,0.475c1.63,0,3.298-0.275,4.959-0.816
		c1.921-0.58,3.636-1.607,5.072-3.049l2.448-2.561c0.845-0.771,1.681-1.816,2.484-3.109c0.758-1.205,1.411-2.273,1.94-3.18
		c0.514-0.865,1.135-2.025,1.848-3.449c0.697-1.396,1.218-2.496,1.544-3.268c0.295-0.705,0.612-1.418,0.979-2.187
		c0.521-1.104,0.62-1.474,0.62-1.77C140.528,46.096,139.809,45.379,138.698,45.379z M103.106,29.678
		c0,2.465-1.103,5.767-3.271,9.812c-3.426,6.321-7.752,11.692-12.854,15.954c-3.823,3.189-5.896,3.861-6.955,3.861
		c-1.211,0-2.182-0.25-2.94-0.766C83.623,46.398,88.719,37.75,92.235,32.83c3.359-4.697,6.373-7.18,8.711-7.18
		c0.707,0,1.154,0.302,1.494,1.01C102.881,27.572,103.106,28.585,103.106,29.678z M109.28,67.252c-0.01,0-0.02,0-0.026,0
		c-1.801,0-2.836-0.732-3.346-2.373c-0.062-0.439-0.093-0.877-0.093-1.301c0-0.684,0.146-1.336,0.44-1.973
		C106.758,63.902,107.772,65.791,109.28,67.252z"/>
	<g>
		<polygon fill="#3BC492" points="121.782,14.913 131.202,14.913 131.202,51.734 138.329,40.879 138.329,8.422 121.782,8.422 		"/>
		<polygon fill="#3BC492" points="22.104,8.423 5.558,8.423 5.558,53.751 12.683,38.894 12.683,14.913 22.104,14.913 		"/>
		<polygon fill="#3BC492" points="131.202,80.494 121.782,80.494 121.782,86.982 138.329,86.982 138.329,57.852 131.202,68.213 		
			"/>
		<polygon fill="#3BC492" points="12.683,66.33 5.558,67.83 5.558,86.982 22.104,86.982 22.104,80.494 12.683,80.494 		"/>
	</g>
</g>
</svg>
